<svg width="40" height="40" viewBox="0 0 40 40" fill="none" xmlns="http://www.w3.org/2000/svg">
<path d="M24.6196 16.1356L16.2843 24.7683M24.7683 24.6196L16.1356 16.2843M33.4009 32.9549C31.759 34.6554 29.7983 36.0158 27.6306 36.9585C25.4629 37.9012 23.1308 38.4078 20.7673 38.4492C18.4039 38.4906 16.0555 38.0661 13.8561 37.1999C11.6567 36.3337 9.64948 35.0428 7.94899 33.4009C6.24851 31.759 4.88807 29.7982 3.94536 27.6306C3.00265 25.4629 2.49613 23.1308 2.45471 20.7673C2.41329 18.4039 2.83779 16.0554 3.70398 13.8561C4.57016 11.6567 5.86105 9.64947 7.50297 7.94898C10.819 4.5147 15.3634 2.53835 20.1366 2.4547C24.9097 2.37105 29.5206 4.18696 32.9549 7.50295C36.3892 10.8189 38.3655 15.3634 38.4492 20.1365C38.5328 24.9097 36.7169 29.5206 33.4009 32.9549Z" stroke="#94A3B8" stroke-width="3" stroke-linecap="round" stroke-linejoin="round"/>
</svg>
