<svg width="153" height="153" viewBox="0 0 153 153" fill="none" xmlns="http://www.w3.org/2000/svg">
<path id="Vector" d="M53 82.375L70.625 100L100 58.875M147 76.5C147 85.7582 145.176 94.9257 141.634 103.479C138.091 112.033 132.898 119.804 126.351 126.351C119.804 132.898 112.033 138.091 103.479 141.634C94.9257 145.176 85.7582 147 76.5 147C67.2418 147 58.0743 145.176 49.5208 141.634C40.9674 138.091 33.1955 132.898 26.649 126.351C20.1024 119.804 14.9094 112.033 11.3665 103.479C7.82354 94.9257 6 85.7582 6 76.5C6 57.8022 13.4277 39.8703 26.649 26.649C39.8703 13.4277 57.8022 6 76.5 6C95.1978 6 113.13 13.4277 126.351 26.649C139.572 39.8703 147 57.8022 147 76.5Z" stroke="#94A3B8" stroke-width="11.75" stroke-linecap="round" stroke-linejoin="round"/>
</svg>
